<svg width="37" height="13" viewBox="0 0 37 13" fill="none" xmlns="http://www.w3.org/2000/svg">
<path d="M4.97336 6.69C4.81336 6.43 4.58836 6.22 4.29836 6.06C4.00836 5.89 3.68336 5.805 3.32336 5.805C3.16336 5.805 3.00336 5.825 2.84336 5.865C2.68336 5.895 2.53836 5.95 2.40836 6.03C2.28836 6.1 2.18836 6.195 2.10836 6.315C2.03836 6.425 2.00336 6.565 2.00336 6.735C2.00336 7.035 2.13836 7.26 2.40836 7.41C2.67836 7.55 3.08336 7.68 3.62336 7.8C3.96336 7.88 4.27836 7.975 4.56836 8.085C4.85836 8.195 5.10836 8.335 5.31836 8.505C5.53836 8.665 5.70836 8.86 5.82836 9.09C5.94836 9.32 6.00836 9.59 6.00836 9.9C6.00836 10.32 5.92836 10.675 5.76836 10.965C5.60836 11.255 5.39336 11.495 5.12336 11.685C4.86336 11.865 4.56336 11.995 4.22336 12.075C3.88336 12.155 3.53336 12.195 3.17336 12.195C2.63336 12.195 2.10336 12.09 1.58336 11.88C1.07336 11.67 0.648358 11.35 0.308358 10.92L1.31336 10.065C1.50336 10.345 1.76336 10.58 2.09336 10.77C2.43336 10.96 2.80336 11.055 3.20336 11.055C3.38336 11.055 3.55336 11.04 3.71336 11.01C3.88336 10.97 4.03336 10.91 4.16336 10.83C4.30336 10.75 4.41336 10.645 4.49336 10.515C4.57336 10.385 4.61336 10.22 4.61336 10.02C4.61336 9.69 4.45336 9.445 4.13336 9.285C3.82336 9.125 3.36336 8.975 2.75336 8.835C2.51336 8.775 2.26836 8.705 2.01836 8.625C1.77836 8.535 1.55836 8.415 1.35836 8.265C1.15836 8.115 0.993358 7.93 0.863358 7.71C0.743358 7.48 0.683358 7.2 0.683358 6.87C0.683358 6.49 0.758358 6.165 0.908358 5.895C1.06836 5.615 1.27336 5.39 1.52336 5.22C1.77336 5.04 2.05836 4.91 2.37836 4.83C2.69836 4.74 3.02836 4.695 3.36836 4.695C3.87836 4.695 4.36836 4.795 4.83836 4.995C5.31836 5.195 5.68836 5.485 5.94836 5.865L4.97336 6.69ZM9.5684 5.97C9.7384 5.62 10.0284 5.32 10.4384 5.07C10.8484 4.82 11.3084 4.695 11.8184 4.695C12.2784 4.695 12.6734 4.775 13.0034 4.935C13.3334 5.085 13.6084 5.29 13.8284 5.55C14.0484 5.81 14.2084 6.115 14.3084 6.465C14.4184 6.815 14.4734 7.19 14.4734 7.59V12H13.0634V8.07C13.0634 7.78 13.0384 7.505 12.9884 7.245C12.9484 6.985 12.8684 6.755 12.7484 6.555C12.6284 6.355 12.4634 6.195 12.2534 6.075C12.0534 5.955 11.7884 5.895 11.4584 5.895C10.8984 5.895 10.4384 6.11 10.0784 6.54C9.7184 6.96 9.5384 7.525 9.5384 8.235V12H8.1284V0.659999H9.5384V5.97H9.5684ZM24.3582 8.43C24.3582 8.98 24.2582 9.485 24.0582 9.945C23.8682 10.405 23.5982 10.805 23.2482 11.145C22.9082 11.475 22.5032 11.735 22.0332 11.925C21.5632 12.105 21.0582 12.195 20.5182 12.195C19.9782 12.195 19.4732 12.105 19.0032 11.925C18.5332 11.735 18.1282 11.475 17.7882 11.145C17.4482 10.805 17.1782 10.405 16.9782 9.945C16.7882 9.485 16.6932 8.98 16.6932 8.43C16.6932 7.88 16.7882 7.38 16.9782 6.93C17.1782 6.47 17.4482 6.075 17.7882 5.745C18.1282 5.415 18.5332 5.16 19.0032 4.98C19.4732 4.79 19.9782 4.695 20.5182 4.695C21.0582 4.695 21.5632 4.79 22.0332 4.98C22.5032 5.16 22.9082 5.415 23.2482 5.745C23.5982 6.075 23.8682 6.47 24.0582 6.93C24.2582 7.38 24.3582 7.88 24.3582 8.43ZM22.8882 8.43C22.8882 8.09 22.8332 7.765 22.7232 7.455C22.6232 7.145 22.4732 6.875 22.2732 6.645C22.0732 6.405 21.8232 6.215 21.5232 6.075C21.2332 5.935 20.8982 5.865 20.5182 5.865C20.1382 5.865 19.7982 5.935 19.4982 6.075C19.2082 6.215 18.9632 6.405 18.7632 6.645C18.5632 6.875 18.4082 7.145 18.2982 7.455C18.1982 7.765 18.1482 8.09 18.1482 8.43C18.1482 8.77 18.1982 9.095 18.2982 9.405C18.4082 9.715 18.5632 9.99 18.7632 10.23C18.9632 10.47 19.2082 10.66 19.4982 10.8C19.7982 10.94 20.1382 11.01 20.5182 11.01C20.8982 11.01 21.2332 10.94 21.5232 10.8C21.8232 10.66 22.0732 10.47 22.2732 10.23C22.4732 9.99 22.6232 9.715 22.7232 9.405C22.8332 9.095 22.8882 8.77 22.8882 8.43ZM27.1384 4.89L28.7434 10.32H28.7734L30.4684 4.89H31.9534L33.6784 10.32H33.7084L35.3134 4.89H36.7984L34.4434 12H32.9734L31.2184 6.66H31.1884L29.4484 12H27.9784L25.6084 4.89H27.1384Z" fill="#505CA4"/>
</svg>
