<svg width="32" height="32" viewBox="0 0 32 32" fill="none" xmlns="http://www.w3.org/2000/svg">
<g clip-path="url(#clip0)">
<path d="M16 9.93744C16.5178 9.93744 16.9375 9.51769 16.9375 8.99994V7.14069C16.9375 6.62294 16.5178 6.20319 16 6.20319C15.4822 6.20319 15.0625 6.62294 15.0625 7.14069V8.99994C15.0625 9.51769 15.4822 9.93744 16 9.93744Z" fill="#5F69E2"/>
<path d="M3.49658 17.818H28.5034C29.0212 17.818 29.4409 18.2377 29.4409 18.7555V29.7283C29.4409 30.2461 29.0212 30.6658 28.5034 30.6658H3.49664C2.97889 30.6658 2.55914 30.2461 2.55914 29.7283V18.7555C2.55908 18.2377 2.97883 17.818 3.49658 17.818Z" fill="#FFE377"/>
<path d="M3.49658 17.818H16V30.6658H3.49658C2.97883 30.6658 2.55908 30.2461 2.55908 29.7283V18.7555C2.55908 18.2377 2.97883 17.818 3.49658 17.818Z" fill="#FFCC00"/>
<path d="M23.5519 9.93744C24.0697 9.93744 24.4894 9.51769 24.4894 8.99994V7.14069C24.4894 6.62294 24.0697 6.20319 23.5519 6.20319C23.0342 6.20319 22.6144 6.62294 22.6144 7.14069V8.99994C22.6144 9.51769 23.0341 9.93744 23.5519 9.93744Z" fill="#5F69E2"/>
<path d="M8.44807 9.93744C8.96582 9.93744 9.38557 9.51769 9.38557 8.99994V7.14069C9.38557 6.62294 8.96582 6.20319 8.44807 6.20319C7.93032 6.20319 7.51057 6.62294 7.51057 7.14069V8.99994C7.51057 9.51769 7.93032 9.93744 8.44807 9.93744Z" fill="#3440DA"/>
<path d="M6.88394 2.37898C7.3115 1.58304 7.73287 0.913667 7.75062 0.885542C7.90162 0.646104 8.165 0.500854 8.44806 0.500854C8.73112 0.500854 8.9945 0.646104 9.1455 0.885542C9.16325 0.913667 9.58462 1.58304 10.0122 2.37898C10.8417 3.92317 10.948 4.54123 10.948 4.90717C10.948 6.28598 9.8265 7.40773 8.448 7.40773C7.0695 7.40773 5.948 6.28598 5.948 4.90717C5.94806 4.54117 6.05444 3.92317 6.88394 2.37898Z" fill="#FFCC00"/>
<path d="M15.9999 6.20319L16 9.93744C15.4822 9.93744 15.0625 9.51769 15.0625 8.99994V7.14069C15.0624 6.62294 15.4822 6.20319 15.9999 6.20319Z" fill="#3440DA"/>
<path d="M15.3025 0.885481C15.4535 0.646043 15.7169 0.500793 15.9999 0.500793C16.2831 0.500793 16.5464 0.646043 16.6974 0.885481C16.7151 0.913606 17.1365 1.58298 17.5641 2.37892C18.3936 3.92311 18.4999 4.54117 18.4999 4.90711C18.4999 6.28592 17.3784 7.40767 15.9999 7.40767C14.6214 7.40767 13.4999 6.28592 13.4999 4.90711C13.4999 4.54117 13.6062 3.92311 14.4357 2.37892C14.8634 1.58304 15.2847 0.913606 15.3025 0.885481Z" fill="#FFE377"/>
<path d="M14.4358 2.37898C14.8634 1.58304 15.2848 0.913667 15.3025 0.885542C15.4535 0.646104 15.7169 0.500854 15.9999 0.500854V7.40773C14.6214 7.40773 13.4999 6.28598 13.4999 4.90717C13.5 4.54117 13.6063 3.92317 14.4358 2.37898Z" fill="#FFCC00"/>
<path d="M0.9375 31.4991H31.0625C31.5803 31.4991 32 31.0794 32 30.5616C32 30.0439 31.5803 29.6241 31.0625 29.6241H0.9375C0.41975 29.6241 0 30.0439 0 30.5616C0 31.0794 0.41975 31.4991 0.9375 31.4991Z" fill="#E5E5E5"/>
<path d="M0.9375 29.6241H16V31.4991H0.9375C0.41975 31.4991 0 31.0794 0 30.5616C0 30.0439 0.41975 29.6241 0.9375 29.6241Z" fill="#D6D6D6"/>
<path d="M14.6429 8.92651H17.3571C17.9883 8.92651 18.4999 9.4382 18.4999 10.0694V17.3103C18.4999 17.9415 17.9883 18.4531 17.3571 18.4531H14.6429C14.0117 18.4531 13.5 17.9415 13.5 17.3103V10.0694C13.5 9.4382 14.0117 8.92651 14.6429 8.92651Z" fill="#989EEC"/>
<path d="M22.1948 8.92651H24.909C25.5402 8.92651 26.0519 9.4382 26.0519 10.0694V17.3103C26.0519 17.9415 25.5402 18.4531 24.909 18.4531H22.1948C21.5636 18.4531 21.0519 17.9415 21.0519 17.3103V10.0694C21.0519 9.4382 21.5636 8.92651 22.1948 8.92651Z" fill="#989EEC"/>
<path d="M7.09098 8.92651H9.80517C10.4364 8.92651 10.948 9.4382 10.948 10.0694V17.3103C10.948 17.9415 10.4364 18.4531 9.80517 18.4531H7.09098C6.45979 18.4531 5.94811 17.9415 5.94811 17.3103V10.0694C5.94804 9.4382 6.45979 8.92651 7.09098 8.92651Z" fill="#7C83E7"/>
<path d="M14.6429 8.92651H16V18.4532H14.6429C14.0117 18.4532 13.5 17.9415 13.5 17.3103V10.0694C13.5 9.4382 14.0117 8.92651 14.6429 8.92651Z" fill="#7C83E7"/>
<path d="M4.3945 16.0206H27.6054C29.0476 16.0206 30.221 17.0921 30.221 18.409V20.826C30.221 21.4834 29.9043 22.0969 29.352 22.5094C28.7274 22.9759 27.8964 23.1189 27.1292 22.8916L24.7626 22.191C23.3949 21.7862 21.8886 21.7863 20.5211 22.191L18.653 22.744C17.7975 22.9973 16.8989 23.1239 16.0001 23.1239C15.1014 23.1238 14.2024 22.9973 13.3471 22.744L11.4791 22.191C10.1114 21.7861 8.60519 21.7862 7.23756 22.191L4.87094 22.8916C4.10375 23.1187 3.27269 22.9758 2.64819 22.5094C2.09588 22.0969 1.77919 21.4834 1.77919 20.826V18.409C1.779 17.0921 2.95231 16.0206 4.3945 16.0206Z" fill="#FFA1C0"/>
<path d="M4.3945 16.0206H16V23.1238C15.1013 23.1238 14.2023 22.9972 13.3471 22.7439L11.479 22.1909C10.1114 21.786 8.60512 21.7861 7.2375 22.1909L4.87087 22.8916C4.10369 23.1186 3.27262 22.9758 2.64812 22.5094C2.09581 22.0968 1.77913 21.4833 1.77913 20.8259V18.4089C1.779 17.0921 2.95231 16.0206 4.3945 16.0206Z" fill="#FF80A9"/>
<path d="M22.8544 0.885481C23.0054 0.646043 23.2688 0.500793 23.5519 0.500793C23.8349 0.500793 24.0983 0.646043 24.2493 0.885481C24.2671 0.913606 24.6884 1.58298 25.116 2.37892C25.9456 3.92317 26.0519 4.54117 26.0519 4.90717C26.0519 6.28598 24.9304 7.40773 23.5519 7.40773C22.1734 7.40773 21.0519 6.28598 21.0519 4.90717C21.0519 4.54123 21.1583 3.92317 21.9878 2.37898C22.4153 1.58304 22.8367 0.913606 22.8544 0.885481Z" fill="#FFE377"/>
</g>
<defs>
<clipPath id="clip0">
<rect width="32" height="32" fill="white" transform="matrix(-1 0 0 1 32 0)"/>
</clipPath>
</defs>
</svg>
