<svg width="32" height="32" viewBox="0 0 32 32" fill="none" xmlns="http://www.w3.org/2000/svg">
<g clip-path="url(#clip0)">
<path d="M23.3437 10.238C22.6768 9.50997 21.6401 8.52729 21.199 10.7462C21.049 11.5006 20.6986 12.0822 20.3983 12.5504C20.0746 10.9122 19.1007 9.21648 18.1831 8.07316C17.8397 7.64541 16.6213 5.94497 16.3873 3.10023C16.3523 2.67566 15.848 2.47629 15.5326 2.76266C12.5181 5.49916 10.8635 9.26279 10.802 13.4998C10.802 13.4998 9.54677 12.4418 8.86483 10.4734C8.68121 9.94335 7.97058 9.84223 7.66227 10.3109C7.60308 10.4009 7.54821 10.491 7.49871 10.5785C5.17289 14.691 4.05408 19.6851 5.0884 24.3313C6.81777 32.1124 18.2574 34.2878 24.3136 29.3972C30.2389 24.6125 28.3554 15.7069 23.3437 10.238Z" fill="#ED694A"/>
<path d="M6.6982 24.8199C5.67589 20.1239 6.75802 15.0812 9.0292 10.9044C8.97177 10.7658 8.91652 10.6225 8.86489 10.4735C8.68127 9.94343 7.97064 9.84231 7.66233 10.311C7.60314 10.401 7.54833 10.4911 7.49883 10.5786C5.17302 14.6911 4.0542 19.6852 5.08852 24.3314C5.87733 27.8806 8.68658 30.2627 12.0835 31.3407C9.43352 30.0571 7.35827 27.8565 6.6982 24.8199Z" fill="#D8553A"/>
<path d="M12.4198 13.4219C12.5453 9.57646 13.9362 6.12834 16.4256 3.47946C16.4084 3.33359 16.3958 3.20315 16.3876 3.10415C16.3519 2.67596 15.866 2.46121 15.5519 2.74509C12.6404 5.37746 10.8658 9.10303 10.8021 13.4998L11.347 13.923C11.6154 14.1314 11.979 14.1223 12.2353 13.9314C12.3883 13.8018 12.4102 13.6062 12.4198 13.4219Z" fill="#D8553A"/>
<path d="M21.5151 15.9262C21.0226 15.3884 20.2568 14.6626 19.9311 16.3015C19.8203 16.8587 19.5614 17.2883 19.3397 17.6342C19.1006 16.4241 18.3812 15.1716 17.7035 14.3272C17.4499 14.0113 16.55 12.7553 16.3771 10.654C16.3512 10.3404 15.9788 10.1932 15.7458 10.4047C13.5192 12.4259 12.2971 15.2059 12.2517 18.3354C12.2517 18.3354 11.3246 17.5539 10.8209 16.1C10.6853 15.7085 10.1604 15.6338 9.93269 15.98C9.889 16.0464 9.84844 16.1131 9.81187 16.1777C8.09394 19.2153 7.26756 22.9039 8.0315 26.3358C9.30887 32.0831 17.7584 33.6899 22.2316 30.0776C26.6081 26.5435 25.2169 19.9657 21.5151 15.9262Z" fill="#F4A32C"/>
<path d="M9.62462 26.7866C8.94825 23.4318 9.64881 19.8321 11.1341 16.8346C11.0209 16.613 10.9137 16.368 10.8208 16.1C10.6852 15.7085 10.1602 15.6338 9.93256 15.9799C9.88887 16.0464 9.84831 16.113 9.81175 16.1777C8.09387 19.2153 7.26756 22.9039 8.03137 26.3358C8.6255 29.0088 10.7712 30.7855 13.3464 31.5587C11.5167 30.6411 10.0761 29.029 9.62462 26.7866Z" fill="#E89528"/>
<path d="M19.8459 21.1189C19.5125 20.7549 18.994 20.2635 18.7735 21.373C18.6986 21.7503 18.5233 22.041 18.3732 22.2751C18.2113 21.4559 17.7244 20.6081 17.2655 20.0365C17.0939 19.8226 16.4847 18.9724 16.3676 17.55C16.3501 17.3377 16.098 17.238 15.9403 17.3813C14.433 18.7495 13.6057 20.6314 13.575 22.7498C13.575 22.7498 12.9473 22.2207 12.6065 21.2366C12.5147 20.9716 12.1593 20.9211 12.0052 21.1554C11.9756 21.2003 11.9482 21.2454 11.9234 21.2892C10.7605 23.3454 10.2011 25.8424 10.7182 28.1656C11.5829 32.0562 17.3027 33.1439 20.3308 30.6986C21.3677 29.8612 22.0107 28.6813 22.141 27.3761C22.3378 25.3992 21.577 23.008 19.8459 21.1189Z" fill="#F4D44E"/>
<path d="M18.2968 25.9379C18.111 25.7351 17.8222 25.4613 17.6994 26.0794C17.6576 26.2896 17.56 26.4516 17.4763 26.582C17.3861 26.1257 17.1148 25.6533 16.8592 25.3348C16.7636 25.2157 16.4242 24.742 16.3589 23.9495C16.3492 23.8312 16.2087 23.7758 16.1208 23.8555C15.2812 24.6178 14.8202 25.6662 14.8031 26.8465C14.8031 26.8465 14.4534 26.5517 14.2635 26.0034C14.2123 25.8557 14.0143 25.8275 13.9285 25.9582C13.912 25.9832 13.8968 26.0084 13.883 26.0327C13.2352 27.1783 12.9235 28.5695 13.2116 29.8638C13.8677 32.8157 19.2457 32.7262 19.5756 29.4238C19.6851 28.3225 19.2612 26.9903 18.2968 25.9379Z" fill="#EAE9E8"/>
<path d="M14.4602 30.4497C14.1721 29.2918 14.4838 28.0474 15.1317 27.0227C15.1454 27.0008 15.1607 26.9784 15.1772 26.956C15.263 26.8392 15.461 26.8643 15.5121 26.9964C15.702 27.4869 16.0517 27.7506 16.0517 27.7506C16.0658 26.8831 16.38 26.0956 16.9572 25.464C16.8282 25.2852 16.4333 24.8542 16.3589 23.9497C16.3491 23.8313 16.2086 23.7759 16.1208 23.8556C15.2811 24.6179 14.8201 25.6663 14.803 26.8466C14.803 26.8466 14.4534 26.5518 14.2634 26.0036C14.2123 25.8559 14.0143 25.8277 13.9285 25.9583C13.912 25.9834 13.8967 26.0085 13.883 26.0329C13.2351 27.1785 12.9234 28.5697 13.2115 29.864C13.4782 31.0637 14.5735 31.7847 15.7845 31.9587C15.1313 31.6378 14.6292 31.1298 14.4602 30.4497Z" fill="#F7E7A1"/>
<path d="M11.5374 4.25281C12.8889 3.1535 12.8859 1.09681 11.5374 0C10.1858 1.09925 10.1887 3.156 11.5374 4.25281Z" fill="#D8553A"/>
<path d="M27.7371 13.0758C29.0886 11.9765 29.0856 9.91981 27.7371 8.823C27.1193 9.32537 26.3885 11.979 27.7371 13.0758Z" fill="#D8553A"/>
<path d="M3.79904 13.9128C4.7731 13.1205 4.77098 11.6383 3.79904 10.8478C3.35385 11.2098 2.8271 13.1223 3.79904 13.9128Z" fill="#D8553A"/>
<path d="M20.6693 7.31787C21.6434 6.52556 21.6412 5.04337 20.6693 4.25281C19.6952 5.04506 19.6974 6.52737 20.6693 7.31787Z" fill="#D8553A"/>
<path d="M13.4945 17.8328C13.7181 15.192 14.7266 12.8439 16.4198 11.0539C16.4027 10.9241 16.3883 10.7909 16.377 10.654C16.3512 10.3404 15.9788 10.1932 15.7458 10.4047C13.9814 12.0063 12.849 14.0848 12.4319 16.4358L12.4313 16.4356C12.4003 16.6099 12.362 16.8639 12.3377 17.0635C12.3378 17.0637 12.3378 17.0638 12.338 17.064C12.2873 17.4805 12.2579 17.9045 12.2516 18.3355C12.2988 18.3446 13.3655 18.893 13.4945 17.8328Z" fill="#E89528"/>
<path d="M12.2769 28.7175C11.8172 26.5472 12.2087 24.2329 13.1182 22.2275C12.942 21.9805 12.7492 21.6486 12.6065 21.2366C12.5147 20.9716 12.1594 20.921 12.0052 21.1554C11.9757 21.2003 11.9482 21.2454 11.9234 21.2892C10.7605 23.3454 10.2011 25.8424 10.7182 28.1656C11.1232 29.9876 12.593 31.1949 14.3525 31.7124C13.3283 31.0325 12.5537 30.0262 12.2769 28.7175Z" fill="#E8C842"/>
<path d="M15.2344 21.8014C15.3868 20.7124 15.8323 19.5124 16.5334 18.5092C16.4571 18.226 16.397 17.9059 16.3677 17.55C16.3502 17.3377 16.0981 17.238 15.9404 17.3813C15.0013 18.2338 14.3272 19.2862 13.9443 20.4705L13.9433 20.4703C13.883 20.6563 13.7978 20.9646 13.7462 21.2079C13.7466 21.2078 13.7471 21.2078 13.7475 21.2076C13.6418 21.7041 13.5829 22.2193 13.5753 22.7498C14.4185 22.855 15.1161 22.6462 15.2344 21.8014Z" fill="#E8C842"/>
</g>
<defs>
<clipPath id="clip0">
<rect width="32" height="32" fill="white"/>
</clipPath>
</defs>
</svg>
