<svg width="58" height="58" viewBox="0 0 58 58" fill="none" xmlns="http://www.w3.org/2000/svg">
<g id="medal 1" clip-path="url(#clip0)">
<g id="Group">
<g id="Group_2">
<path id="Vector" d="M29 3.25077L30.6081 0.838635C30.7833 0.575944 31.0781 0.418152 31.3937 0.418152H34.6563L38.1336 1.24462L42.2194 0.418152H44.232C44.9861 0.418152 45.436 1.25868 45.0176 1.88619L38.4424 11.7491L29.3249 13.6376L29 3.25077Z" fill="#4FABF7"/>
<path id="Vector_2" d="M44.232 0.418152H41.6101C42.3644 0.418152 42.8142 1.25868 42.3958 1.88619L35.8205 11.7491L29.3079 13.098L29.3249 13.6376L38.4424 11.7491L45.0176 1.88619C45.436 1.25868 44.9862 0.418152 44.232 0.418152V0.418152Z" fill="#1886EA"/>
<path id="Vector_3" d="M30.8885 6.08361L34.6654 0.418152H42.2194L34.6654 11.7491H30.8885V6.08361Z" fill="#D3DCFB"/>
<path id="Vector_4" d="M42.2194 0.418152H41.6102C41.8036 0.418152 41.9764 0.474032 42.1203 0.566759L42.2194 0.418152Z" fill="#BEC8F7"/>
</g>
<g id="Group_3">
<path id="Vector_5" d="M34.6654 11.7491L27.3918 0.838635C27.2167 0.575944 26.9219 0.418152 26.6062 0.418152H23.3345L20.0515 1.00716L15.7805 0.418152H13.768C13.0139 0.418152 12.564 1.25868 12.9823 1.88619L19.5576 11.7491L27.2141 13.0144L34.6654 11.7491Z" fill="#9BD8F9"/>
<path id="Vector_6" d="M27.3919 0.838635C27.2167 0.575944 26.9219 0.418152 26.6062 0.418152H23.9844C24.3001 0.418152 24.595 0.575944 24.77 0.838635L32.0436 11.7491L25.8854 12.7948L27.2142 13.0144L34.6654 11.7491L27.3919 0.838635Z" fill="#73C3F9"/>
<path id="Vector_7" d="M27.214 13.0144L23.3345 12.3733V11.7491L15.7805 0.418152H23.3345L30.8885 11.7491V12.3904L27.214 13.0144Z" fill="#E9EFFF"/>
</g>
<path id="Vector_8" d="M25.223 14.4963H32.777V22.0698H25.223V14.4963Z" fill="#FFB332"/>
<path id="Vector_9" d="M46.9186 40.2514L47.1089 40.0612C48.1435 39.0266 48.1435 37.3492 47.1089 36.3146L46.9186 36.1244C46.161 35.3667 45.9343 34.2272 46.3444 33.2372L46.4473 32.9887C47.0072 31.6369 46.3653 30.0871 45.0135 29.5272L44.765 29.4243C43.775 29.0142 43.1295 28.0482 43.1295 26.9766V26.7076C43.1295 25.2445 41.9434 24.0584 40.4803 24.0584H40.2113C39.1397 24.0584 38.1737 23.4129 37.7636 22.4229L37.6607 22.1744C37.1008 20.8226 35.551 20.1806 34.1993 20.7407L33.9507 20.8436C32.9607 21.2536 31.8212 21.0269 31.0636 20.2693L30.8733 20.0791C29.8387 19.0444 28.1613 19.0444 27.1267 20.0791L26.9365 20.2693C26.1789 21.0269 25.0394 21.2536 24.0493 20.8436L23.8008 20.7407C22.4491 20.1807 20.8993 20.8226 20.3394 22.1744L20.2365 22.4229C19.8264 23.4129 18.8604 24.0584 17.7888 24.0584H17.5198C16.0566 24.0584 14.8705 25.2445 14.8705 26.7076V26.9766C14.8705 28.0482 14.2251 29.0142 13.2351 29.4243L12.9866 29.5272C11.6348 30.0871 10.9928 31.6369 11.5528 32.9887L11.6557 33.2372C12.0658 34.2272 11.8391 35.3667 11.0814 36.1244L10.8912 36.3146C9.85661 37.3492 9.85661 39.0266 10.8912 40.0612L11.0814 40.2514C11.8392 41.009 12.0658 42.1485 11.6557 43.1386L11.5528 43.3871C10.9929 44.7388 11.6348 46.2886 12.9866 46.8486L13.2351 46.9515C14.2251 47.3615 14.8705 48.3275 14.8705 49.3991V49.6681C14.8705 51.1313 16.0566 52.3174 17.5198 52.3174H17.7888C18.8604 52.3174 19.8264 52.9628 20.2365 53.9528L20.3394 54.2014C20.8993 55.5531 22.4491 56.1951 23.8008 55.6351L24.0493 55.5322C25.0394 55.1221 26.1789 55.3488 26.9365 56.1065L27.1267 56.2967C28.1613 57.3313 29.8387 57.3313 30.8733 56.2967L31.0636 56.1065C31.8212 55.3488 32.9607 55.1221 33.9507 55.5322L34.1993 55.6351C35.551 56.195 37.1008 55.5531 37.6607 54.2014L37.7636 53.9528C38.1737 52.9628 39.1397 52.3174 40.2113 52.3174H40.4803C41.9434 52.3174 43.1295 51.1313 43.1295 49.6681V49.3991C43.1295 48.3275 43.775 47.3615 44.765 46.9515L45.0135 46.8486C46.3653 46.2886 47.0073 44.7388 46.4473 43.3871L46.3444 43.1386C45.9343 42.1487 46.161 41.0091 46.9186 40.2514Z" fill="#FFDD40"/>
<path id="Vector_10" d="M35.6687 44.8627C39.3556 41.1757 39.3556 35.198 35.6687 31.5111C31.9818 27.8242 26.0041 27.8242 22.3172 31.5111C18.6302 35.198 18.6303 41.1757 22.3172 44.8627C26.0041 48.5496 31.9818 48.5496 35.6687 44.8627Z" fill="#FFB332"/>
<path id="Vector_11" d="M29.8467 33.0359L30.9451 35.2616C31.0827 35.5403 31.3486 35.7334 31.6561 35.7781L34.1123 36.1351C34.8867 36.2476 35.196 37.1994 34.6355 37.7456L32.8582 39.4781C32.6357 39.6951 32.5341 40.0076 32.5867 40.3139L33.0063 42.7602C33.1386 43.5316 32.329 44.1198 31.6363 43.7557L29.4394 42.6007C29.1643 42.4561 28.8356 42.4561 28.5606 42.6007L26.3636 43.7557C25.671 44.1198 24.8613 43.5316 24.9935 42.7602L25.4131 40.3139C25.4657 40.0076 25.3641 39.695 25.1416 39.4781L23.3643 37.7456C22.8038 37.1994 23.1131 36.2476 23.8876 36.1351L26.3437 35.7781C26.6512 35.7334 26.9171 35.5403 27.0547 35.2616L28.1531 33.0359C28.4996 32.3341 29.5003 32.3341 29.8467 33.0359Z" fill="#FFDD40"/>
<path id="Vector_12" d="M36.6719 15.526H21.328C20.3502 15.526 19.5576 14.7334 19.5576 13.7556V11.7491H38.4425V13.7556C38.4424 14.7334 37.6498 15.526 36.6719 15.526Z" fill="#FFDD40"/>
<path id="Vector_13" d="M35.8275 11.7491V13.7021C35.8275 14.7094 35.0109 15.526 34.0036 15.526H36.6186C37.6259 15.526 38.4425 14.7094 38.4425 13.7021V11.7491H35.8275Z" fill="#FFB332"/>
<path id="Vector_14" d="M47.1089 36.3146L46.9186 36.1244C46.161 35.3666 45.9343 34.2272 46.3443 33.2372L46.4473 32.9887C47.0072 31.6369 46.3653 30.0871 45.0135 29.5272L44.765 29.4243C43.775 29.0142 43.1295 28.0482 43.1295 26.9766V26.7077C43.1295 25.2445 41.9434 24.0584 40.4802 24.0584H40.2112C39.1396 24.0584 38.1736 23.4129 37.7635 22.4229L37.6606 22.1744C37.1007 20.8227 35.5509 20.1806 34.1991 20.7407L33.9506 20.8436C33.9257 20.8539 33.9003 20.8621 33.8752 20.8716C34.3814 21.1517 34.8002 21.5983 35.0388 22.1744L35.1417 22.4229C35.5518 23.4129 36.5178 24.0584 37.5893 24.0584H37.8583C39.3215 24.0584 40.5076 25.2445 40.5076 26.7077V26.9766C40.5076 28.0482 41.153 29.0142 42.1431 29.4243L42.3916 29.5272C43.7433 30.0871 44.3853 31.6369 43.8254 32.9887L43.7225 33.2372C43.3124 34.2272 43.5392 35.3666 44.2968 36.1244L44.487 36.3146C45.5216 37.3492 45.5216 39.0266 44.487 40.0612L44.2968 40.2514C43.5392 41.0092 43.3124 42.1486 43.7225 43.1386L43.8254 43.3871C44.3853 44.7388 43.7434 46.2887 42.3917 46.8486L42.1432 46.9515C41.1532 47.3616 40.5077 48.3276 40.5077 49.3991V49.6681C40.5077 51.1313 39.3216 52.3174 37.8585 52.3174H37.5895C36.5179 52.3174 35.5519 52.9628 35.1418 53.9528L35.0389 54.2014C34.8002 54.7775 34.3815 55.224 33.8753 55.5042C33.9004 55.5137 33.9258 55.5219 33.9507 55.5322L34.1993 55.6351C35.551 56.195 37.1008 55.5531 37.6607 54.2014L37.7636 53.9528C38.1737 52.9628 39.1397 52.3174 40.2113 52.3174H40.4803C41.9434 52.3174 43.1296 51.1313 43.1296 49.6681V49.3991C43.1296 48.3276 43.7751 47.3616 44.7651 46.9515L45.0136 46.8486C46.3654 46.2887 47.0074 44.7388 46.4474 43.3871L46.3445 43.1386C45.9344 42.1486 46.1611 41.0091 46.9188 40.2514L47.109 40.0612C48.1435 39.0266 48.1435 37.3492 47.1089 36.3146Z" fill="#FFB332"/>
<path id="Vector_15" d="M29 28.7454C28.5475 28.7454 28.1032 28.7793 27.6678 28.8408C32.2515 29.4885 35.7781 33.4254 35.7781 38.1878C35.7781 42.9503 32.2515 46.8873 27.6678 47.5349C28.1032 47.5964 28.5476 47.6303 29 47.6303C34.2149 47.6303 38.4424 43.4028 38.4424 38.1879C38.4424 32.9729 34.2149 28.7454 29 28.7454Z" fill="#FF9100"/>
</g>
</g>
<defs>
<clipPath id="clip0">
<rect width="56.6545" height="56.6545" fill="white" transform="translate(0.672729 0.418152)"/>
</clipPath>
</defs>
</svg>
