<svg width="23" height="24" viewBox="0 0 23 24" fill="none" xmlns="http://www.w3.org/2000/svg">
<path d="M22.555 13.662L20.655 6.82599C20.0981 4.82333 18.8877 3.06428 17.2163 1.82847C15.5449 0.592648 13.5084 -0.049018 11.4305 0.00546213C9.35252 0.0599422 7.35241 0.807442 5.74806 2.12914C4.14371 3.45085 3.0272 5.2709 2.576 7.29999L1.105 13.915C0.942512 14.6459 0.946269 15.404 1.11599 16.1333C1.28571 16.8626 1.61706 17.5445 2.08558 18.1285C2.5541 18.7126 3.14782 19.184 3.82291 19.5079C4.498 19.8319 5.23722 20 5.986 20H7.1C7.32951 21.1303 7.94273 22.1465 8.83574 22.8764C9.72875 23.6063 10.8466 24.005 12 24.005C13.1534 24.005 14.2712 23.6063 15.1643 22.8764C16.0573 22.1465 16.6705 21.1303 16.9 20H17.738C18.5088 20 19.2692 19.8219 19.9598 19.4794C20.6503 19.137 21.2523 18.6395 21.7188 18.0259C22.1853 17.4122 22.5036 16.699 22.6488 15.942C22.794 15.185 22.7623 14.4047 22.556 13.662H22.555ZM12 22C11.3817 21.9974 10.7794 21.8039 10.2753 21.4459C9.77123 21.0879 9.39008 20.5829 9.184 20H14.816C14.6099 20.5829 14.2288 21.0879 13.7247 21.4459C13.2206 21.8039 12.6183 21.9974 12 22ZM20.126 16.815C19.8473 17.1847 19.4863 17.4842 19.0716 17.69C18.6569 17.8957 18.1999 18.0018 17.737 18H5.986C5.53678 17.9999 5.09332 17.899 4.68834 17.7046C4.28336 17.5102 3.9272 17.2273 3.64616 16.8769C3.36511 16.5265 3.16636 16.1174 3.06456 15.6798C2.96276 15.2423 2.96052 14.7875 3.058 14.349L4.528 7.73299C4.88235 6.1392 5.7593 4.7096 7.01945 3.67144C8.2796 2.63329 9.85062 2.04617 11.4828 2.00341C13.1149 1.96065 14.7145 2.46471 16.0273 3.43546C17.3401 4.40622 18.2907 5.78794 18.728 7.36099L20.628 14.197C20.7535 14.6424 20.7735 15.1109 20.6864 15.5653C20.5993 16.0198 20.4074 16.4477 20.126 16.815Z" fill="#505CA4"/>
</svg>
