<svg width="103" height="117" viewBox="0 0 103 117" fill="none" xmlns="http://www.w3.org/2000/svg">
<g id="Group">
<g id="Group_2">
<path id="Vector" d="M89.1744 45.1583H74.9577V39.148C74.9577 25.4007 63.7734 14.2166 50.0264 14.2166C36.2791 14.2166 25.0951 25.4007 25.0951 39.148V45.1583H10.8784V39.148C10.8784 17.5617 28.4401 0 50.0264 0C71.6124 0 89.1744 17.5617 89.1744 39.148V45.1583Z" fill="url(#paint0_linear)"/>
<path id="Vector_2" d="M50.0263 7.69745C32.1196 7.69745 17.5513 22.2658 17.5513 40.1725V45.1586H25.095V39.1482C25.095 25.4009 36.2791 14.2169 50.0263 14.2169C63.7734 14.2169 74.9577 25.4009 74.9577 39.1482V45.1586H82.5014V40.1723C82.5014 22.2656 67.9331 7.69745 50.0263 7.69745Z" fill="url(#paint1_linear)"/>
</g>
<g id="Group_3">
<g id="Group_4">
<g id="Group_5">
<path id="Vector_3" d="M6.70713 70.2411H4.22306C2.42241 70.2411 0.962891 68.7813 0.962891 66.9809V64.3014C0.962891 62.5007 2.42264 61.0412 4.22306 61.0412H6.70713C8.50779 61.0412 9.9673 62.5009 9.9673 64.3014V66.9809C9.9673 68.7813 8.50756 70.2411 6.70713 70.2411Z" fill="url(#paint2_linear)"/>
<path id="Vector_4" d="M6.70713 79.441H4.22306C2.42241 79.441 0.962891 77.9812 0.962891 76.1808V73.5013C0.962891 71.7006 2.42264 70.2411 4.22306 70.2411H6.70713C8.50779 70.2411 9.9673 71.7008 9.9673 73.5013V76.1808C9.9673 77.9814 8.50756 79.441 6.70713 79.441Z" fill="url(#paint3_linear)"/>
<path id="Vector_5" d="M6.70713 88.641H4.22306C2.42241 88.641 0.962891 87.1813 0.962891 85.3809V82.7013C0.962891 80.9007 2.42264 79.4412 4.22306 79.4412H6.70713C8.50779 79.4412 9.9673 80.9009 9.9673 82.7013V85.3809C9.9673 87.1813 8.50756 88.641 6.70713 88.641Z" fill="url(#paint4_linear)"/>
<path id="Vector_6" d="M6.70713 97.8412H4.22306C2.42241 97.8412 0.962891 96.3814 0.962891 94.581V91.9015C0.962891 90.1008 2.42264 88.6413 4.22306 88.6413H6.70713C8.50779 88.6413 9.9673 90.101 9.9673 91.9015V94.581C9.9673 96.3814 8.50756 97.8412 6.70713 97.8412Z" fill="url(#paint5_linear)"/>
</g>
<g id="Group_6">
<path id="Vector_7" d="M98.7774 70.2411H96.2934C94.4927 70.2411 93.0332 68.7813 93.0332 66.9809V64.3014C93.0332 62.5007 94.493 61.0412 96.2934 61.0412H98.7774C100.578 61.0412 102.038 62.5009 102.038 64.3014V66.9809C102.038 68.7813 100.578 70.2411 98.7774 70.2411Z" fill="url(#paint6_linear)"/>
<path id="Vector_8" d="M98.7774 79.441H96.2934C94.4927 79.441 93.0332 77.9812 93.0332 76.1808V73.5013C93.0332 71.7006 94.493 70.2411 96.2934 70.2411H98.7774C100.578 70.2411 102.038 71.7008 102.038 73.5013V76.1808C102.038 77.9814 100.578 79.441 98.7774 79.441Z" fill="url(#paint7_linear)"/>
<path id="Vector_9" d="M98.7774 88.641H96.2934C94.4927 88.641 93.0332 87.1813 93.0332 85.3809V82.7013C93.0332 80.9007 94.493 79.4412 96.2934 79.4412H98.7774C100.578 79.4412 102.038 80.9009 102.038 82.7013V85.3809C102.038 87.1813 100.578 88.641 98.7774 88.641Z" fill="url(#paint8_linear)"/>
<path id="Vector_10" d="M98.7774 97.8412H96.2934C94.4927 97.8412 93.0332 96.3814 93.0332 94.581V91.9015C93.0332 90.1008 94.493 88.6413 96.2934 88.6413H98.7774C100.578 88.6413 102.038 90.101 102.038 91.9015V94.581C102.038 96.3814 100.578 97.8412 98.7774 97.8412Z" fill="url(#paint9_linear)"/>
</g>
</g>
<g id="Group_7">
<path id="Vector_11" d="M87.5975 117H15.4025C9.91406 117 5.46484 112.551 5.46484 107.062V51.82C5.46484 46.3315 9.91406 41.8823 15.4025 41.8823H87.5975C93.0859 41.8823 97.5351 46.3315 97.5351 51.82V107.062C97.5351 112.551 93.0859 117 87.5975 117Z" fill="url(#paint10_linear)"/>
<path id="Vector_12" d="M5.46484 92.0217V107.062C5.46484 112.551 9.91406 117 15.4025 117H87.5975C93.0859 117 97.5351 112.551 97.5351 107.062V92.0217H5.46484Z" fill="url(#paint11_linear)"/>
</g>
<path id="Vector_13" d="M97.5354 69.5966V107.062C97.5354 112.551 93.0869 117 87.5973 117H68.5573L33.3855 81.8305C31.3176 79.7625 31.5286 76.8334 33.5965 74.7634C35.6645 72.6955 38.8067 72.6955 40.8746 74.7634L50.7653 84.6541C51.0178 84.9066 51.3035 84.9603 51.5001 84.9603C51.6967 84.9603 52.4067 84.4822 52.6593 84.2317L73.7899 63.1031L78.4619 58.4291C80.5298 56.3612 83.8834 55.9368 85.9513 58.0047L97.5354 69.5966Z" fill="url(#paint12_linear)"/>
<path id="Vector_14" d="M97.5353 86.8482V107.062C97.5353 112.551 93.0867 117 87.5971 117H50.4299L32.7168 99.2869C27.4568 94.3064 24.5981 87.2579 24.5981 79.4416C24.5981 64.5498 36.6083 52.5397 51.5001 52.5397C59.3164 52.5397 66.3649 55.3984 71.3454 60.6583L97.5353 86.8482Z" fill="url(#paint13_linear)"/>
<path id="Vector_15" d="M51.5 106.767C66.5916 106.767 78.8257 94.5325 78.8257 79.4409C78.8257 64.3494 66.5916 52.1152 51.5 52.1152C36.4084 52.1152 24.1743 64.3494 24.1743 79.4409C24.1743 94.5325 36.4084 106.767 51.5 106.767Z" fill="url(#paint14_linear)"/>
<path id="Vector_16" d="M73.5662 63.3234L52.6588 84.2308C52.4074 84.4822 51.6964 84.9592 51.5 84.9592C51.3037 84.9592 51.0169 84.9064 50.7652 84.6548L40.8746 74.7644C38.8065 72.6964 35.6653 72.6964 33.5972 74.7644C31.5291 76.8325 31.3171 79.7616 33.3852 81.8298L57.6313 106.076C69.7706 103.293 78.8257 92.4247 78.8257 79.4412C78.8257 73.4131 76.8723 67.8421 73.5662 63.3234Z" fill="url(#paint15_linear)"/>
<path id="Vector_17" d="M51.5002 95.1267C48.3935 95.1267 45.4726 93.9168 43.276 91.7199L33.3856 81.8295C31.3174 79.7614 31.3174 76.4083 33.3856 74.3404C35.4535 72.2725 38.8066 72.2725 40.8747 74.3404L50.7654 84.2308C51.017 84.4824 51.304 84.5352 51.5002 84.5352C51.6965 84.5352 51.9833 84.4824 52.235 84.2308L78.4613 58.0044C80.5295 55.9365 83.8826 55.9365 85.9505 58.0044C88.0186 60.0726 88.0186 63.4257 85.9505 65.4936L59.7241 91.7199C57.5277 93.9168 54.6069 95.1267 51.5002 95.1267Z" fill="url(#paint16_linear)"/>
<g id="Group_8">
<path id="Vector_18" d="M15.6428 54.6986H13.2959C11.95 54.6986 10.8589 53.6076 10.8589 52.2616V49.9149C10.8589 48.569 11.95 47.4779 13.2959 47.4779H15.6426C16.9885 47.4779 18.0796 48.569 18.0796 49.9149V52.2616C18.0796 53.6076 16.9885 54.6986 15.6428 54.6986Z" fill="url(#paint17_linear)"/>
<path id="Vector_19" d="M24.8491 54.6986H22.5025C21.1565 54.6986 20.0654 53.6076 20.0654 52.2616V49.9149C20.0654 48.569 21.1565 47.4779 22.5025 47.4779H24.8491C26.1951 47.4779 27.2862 48.569 27.2862 49.9149V52.2616C27.2862 53.6076 26.1951 54.6986 24.8491 54.6986Z" fill="url(#paint18_linear)"/>
<path id="Vector_20" d="M34.0557 54.6986H31.709C30.3631 54.6986 29.272 53.6076 29.272 52.2616V49.9149C29.272 48.569 30.3631 47.4779 31.709 47.4779H34.0557C35.4016 47.4779 36.4927 48.569 36.4927 49.9149V52.2616C36.4927 53.6076 35.4016 54.6986 34.0557 54.6986Z" fill="url(#paint19_linear)"/>
</g>
</g>
</g>
<defs>
<linearGradient id="paint0_linear" x1="27.5642" y1="11.5961" x2="64.1937" y2="48.2258" gradientUnits="userSpaceOnUse">
<stop stop-color="#EDF5FF"/>
<stop offset="1" stop-color="#B5DBFF"/>
</linearGradient>
<linearGradient id="paint1_linear" x1="50.0263" y1="37.9424" x2="50.0263" y2="-49.8865" gradientUnits="userSpaceOnUse">
<stop stop-color="#B5DBFF" stop-opacity="0"/>
<stop offset="0.2428" stop-color="#93CEF6" stop-opacity="0.243"/>
<stop offset="0.5763" stop-color="#6ABFEC" stop-opacity="0.576"/>
<stop offset="0.8403" stop-color="#51B5E5" stop-opacity="0.84"/>
<stop offset="1" stop-color="#48B2E3"/>
</linearGradient>
<linearGradient id="paint2_linear" x1="4.47037" y1="64.8832" x2="8.56055" y2="67.9995" gradientUnits="userSpaceOnUse">
<stop stop-color="#EDF5FF"/>
<stop offset="1" stop-color="#B5DBFF"/>
</linearGradient>
<linearGradient id="paint3_linear" x1="4.47037" y1="74.0833" x2="8.56055" y2="77.1994" gradientUnits="userSpaceOnUse">
<stop stop-color="#EDF5FF"/>
<stop offset="1" stop-color="#B5DBFF"/>
</linearGradient>
<linearGradient id="paint4_linear" x1="4.47037" y1="83.2831" x2="8.56055" y2="86.3994" gradientUnits="userSpaceOnUse">
<stop stop-color="#EDF5FF"/>
<stop offset="1" stop-color="#B5DBFF"/>
</linearGradient>
<linearGradient id="paint5_linear" x1="4.47037" y1="92.4833" x2="8.56055" y2="95.5996" gradientUnits="userSpaceOnUse">
<stop stop-color="#EDF5FF"/>
<stop offset="1" stop-color="#B5DBFF"/>
</linearGradient>
<linearGradient id="paint6_linear" x1="96.5409" y1="64.8832" x2="100.631" y2="67.9995" gradientUnits="userSpaceOnUse">
<stop stop-color="#EDF5FF"/>
<stop offset="1" stop-color="#B5DBFF"/>
</linearGradient>
<linearGradient id="paint7_linear" x1="96.5409" y1="74.0833" x2="100.631" y2="77.1994" gradientUnits="userSpaceOnUse">
<stop stop-color="#EDF5FF"/>
<stop offset="1" stop-color="#B5DBFF"/>
</linearGradient>
<linearGradient id="paint8_linear" x1="96.5409" y1="83.2831" x2="100.631" y2="86.3994" gradientUnits="userSpaceOnUse">
<stop stop-color="#EDF5FF"/>
<stop offset="1" stop-color="#B5DBFF"/>
</linearGradient>
<linearGradient id="paint9_linear" x1="96.5409" y1="92.4833" x2="100.631" y2="95.5996" gradientUnits="userSpaceOnUse">
<stop stop-color="#EDF5FF"/>
<stop offset="1" stop-color="#B5DBFF"/>
</linearGradient>
<linearGradient id="paint10_linear" x1="27.1621" y1="55.1031" x2="67.9665" y2="95.9074" gradientUnits="userSpaceOnUse">
<stop stop-color="#FFDA2D"/>
<stop offset="1" stop-color="#FDBF00"/>
</linearGradient>
<linearGradient id="paint11_linear" x1="51.5" y1="105.162" x2="51.5" y2="117.452" gradientUnits="userSpaceOnUse">
<stop stop-color="#FF9100" stop-opacity="0"/>
<stop offset="1" stop-color="#FF9100"/>
</linearGradient>
<linearGradient id="paint12_linear" x1="93.8146" y1="100.056" x2="67.8642" y2="80.3409" gradientUnits="userSpaceOnUse">
<stop stop-color="#FF9100" stop-opacity="0"/>
<stop offset="1" stop-color="#FF9100"/>
</linearGradient>
<linearGradient id="paint13_linear" x1="88.7357" y1="116.677" x2="47.3441" y2="75.2854" gradientUnits="userSpaceOnUse">
<stop stop-color="#FF9100" stop-opacity="0"/>
<stop offset="1" stop-color="#FF9100"/>
</linearGradient>
<linearGradient id="paint14_linear" x1="38.7904" y1="66.7313" x2="65.1287" y2="93.0696" gradientUnits="userSpaceOnUse">
<stop stop-color="#B9DD39"/>
<stop offset="1" stop-color="#90CC1C"/>
</linearGradient>
<linearGradient id="paint15_linear" x1="76.3375" y1="95.4383" x2="66.5435" y2="85.6442" gradientUnits="userSpaceOnUse">
<stop stop-color="#66BB00" stop-opacity="0"/>
<stop offset="1" stop-color="#66BB00"/>
</linearGradient>
<linearGradient id="paint16_linear" x1="49.0952" y1="59.3442" x2="76.3746" y2="86.6235" gradientUnits="userSpaceOnUse">
<stop stop-color="#536AF7" stop-opacity="0.2"/>
<stop offset="1" stop-color="#505CA4"/>
</linearGradient>
<linearGradient id="paint17_linear" x1="13.6671" y1="50.477" x2="16.9661" y2="52.9904" gradientUnits="userSpaceOnUse">
<stop stop-color="#76E2F8"/>
<stop offset="1" stop-color="#48B2E3"/>
</linearGradient>
<linearGradient id="paint18_linear" x1="22.8737" y1="50.477" x2="26.1726" y2="52.9904" gradientUnits="userSpaceOnUse">
<stop stop-color="#76E2F8"/>
<stop offset="1" stop-color="#48B2E3"/>
</linearGradient>
<linearGradient id="paint19_linear" x1="32.08" y1="50.477" x2="35.3791" y2="52.9904" gradientUnits="userSpaceOnUse">
<stop stop-color="#76E2F8"/>
<stop offset="1" stop-color="#48B2E3"/>
</linearGradient>
</defs>
</svg>
