<svg width="206" height="274" viewBox="0 0 206 274" fill="none" xmlns="http://www.w3.org/2000/svg">
<g id="Group">
<g id="Group_2">
<g id="Group_3">
<path id="Vector" d="M144.104 239.185V233.56C144.104 232.015 144.819 230.556 146.04 229.609C148.621 227.607 148.621 223.708 146.04 221.706C144.819 220.759 144.104 219.3 144.104 217.754V212.13C144.104 210.163 145.699 208.569 147.665 208.569C149.632 208.569 151.226 206.974 151.226 205.007V200.967C151.226 199 149.631 197.406 147.665 197.406C145.698 197.406 144.104 195.811 144.104 193.845V183.099C144.104 181.132 145.699 179.537 147.665 179.537C149.632 179.537 151.226 177.943 151.226 175.976V157.825H110.952V249.517C110.952 253.151 112.284 256.659 114.695 259.378L125.395 271.44C128.423 274.854 133.755 274.854 136.783 271.44L147.483 259.378C149.895 256.659 151.226 253.151 151.226 249.517V246.307C151.226 244.34 149.632 242.746 147.666 242.746C145.699 242.746 144.104 241.152 144.104 239.185Z" fill="url(#paint0_linear)"/>
<path id="Vector_2" d="M137.514 157.825V252.981C137.514 256.529 134.637 259.406 131.089 259.406C127.541 259.406 124.665 256.529 124.665 252.981V157.825H137.514Z" fill="url(#paint1_linear)"/>
<path id="Vector_3" d="M151.226 200.968C151.226 199.001 149.632 197.406 147.665 197.406C145.698 197.406 144.104 195.812 144.104 193.845V183.099C144.104 181.132 145.699 179.538 147.665 179.538C149.632 179.538 151.226 177.944 151.226 175.977V157.825H110.952V167.325L150.622 206.995C151.003 206.427 151.227 205.744 151.227 205.009V200.968H151.226Z" fill="url(#paint2_linear)"/>
<path id="Vector_4" d="M131.089 55.5136C98.9962 55.5136 72.9785 81.5307 72.9785 113.624C72.9785 145.718 98.9956 171.735 131.089 171.735C163.183 171.735 189.2 145.718 189.2 113.624C189.2 81.5307 163.183 55.5136 131.089 55.5136ZM131.089 108.028C121.991 108.028 114.613 100.656 114.613 91.5516C114.613 82.4532 121.991 75.0815 131.089 75.0815C140.188 75.0815 147.566 82.4537 147.566 91.5516C147.566 100.656 140.188 108.028 131.089 108.028Z" fill="url(#paint3_linear)"/>
<path id="Vector_5" d="M131.089 65.6716C104.604 65.6716 83.1362 87.1398 83.1362 113.624C83.1362 140.109 104.604 161.577 131.089 161.577C157.573 161.577 179.042 140.109 179.042 113.624C179.042 87.1398 157.573 65.6716 131.089 65.6716ZM131.089 108.028C121.991 108.028 114.612 100.656 114.612 91.5517C114.612 82.4533 121.991 75.0816 131.089 75.0816C140.187 75.0816 147.565 82.4539 147.565 91.5517C147.565 100.656 140.187 108.028 131.089 108.028Z" fill="url(#paint4_linear)"/>
</g>
<path id="Vector_6" d="M131.089 55.5136C98.9962 55.5136 72.9785 81.5307 72.9785 113.624C72.9785 145.718 98.9956 171.735 131.089 171.735C163.183 171.735 189.2 145.718 189.2 113.624C189.2 81.5307 163.183 55.5136 131.089 55.5136ZM131.089 108.028C121.991 108.028 114.613 100.656 114.613 91.5516C114.613 82.4532 121.991 75.0815 131.089 75.0815C140.188 75.0815 147.566 82.4537 147.566 91.5516C147.566 100.656 140.188 108.028 131.089 108.028Z" fill="url(#paint5_linear)"/>
<g id="Group_4">
<path id="Vector_7" d="M36.0571 205.4L40.0339 201.423C41.1267 200.331 42.6632 199.805 44.1966 199.998C47.4373 200.407 50.1939 197.651 49.7846 194.41C49.5911 192.877 50.1171 191.34 51.2099 190.247L55.1866 186.271C56.5776 184.88 58.8325 184.88 60.2229 186.271C61.6138 187.662 63.8687 187.662 65.2591 186.271L68.1157 183.414C69.5066 182.023 69.5066 179.768 68.1157 178.378C66.7247 176.987 66.7247 174.732 68.1157 173.342L75.7146 165.743C77.1056 164.352 79.3604 164.352 80.7509 165.743C82.1418 167.134 84.3967 167.134 85.7871 165.743L98.6221 152.908L70.1433 124.429L5.30844 189.264C2.73875 191.833 1.20005 195.255 0.983002 198.883L0.0202409 214.978C-0.252147 219.533 3.51777 223.303 8.07315 223.031L24.1682 222.068C27.7958 221.851 31.2176 220.312 33.7873 217.742L36.0571 215.473C37.4481 214.082 37.4481 211.827 36.0571 210.436C34.6662 209.045 34.6662 206.791 36.0571 205.4Z" fill="url(#paint6_linear)"/>
<path id="Vector_8" d="M88.9268 143.21L21.6416 210.495C19.1326 213.004 15.065 213.004 12.5561 210.495C10.0471 207.986 10.0471 203.919 12.5561 201.41L79.8413 134.124L88.9268 143.21Z" fill="url(#paint7_linear)"/>
<path id="Vector_9" d="M156.729 66.322C134.036 43.6288 97.242 43.6288 74.5484 66.322C51.8547 89.0151 51.8552 125.809 74.5484 148.503C97.2415 171.196 134.035 171.196 156.729 148.503C179.423 125.81 179.423 89.0151 156.729 66.322ZM119.596 103.455C113.162 97.0212 113.158 86.5915 119.596 80.1536C126.03 73.72 136.459 73.7248 142.893 80.1579C149.327 86.5915 149.331 97.0212 142.897 103.455C136.459 109.893 126.029 109.888 119.596 103.455Z" fill="url(#paint8_linear)"/>
<path id="Vector_10" d="M149.546 73.5048C130.819 54.7771 100.458 54.7771 81.7308 73.5048C63.0032 92.2324 63.0032 122.593 81.7308 141.32C100.458 160.048 130.819 160.048 149.546 141.32C168.274 122.593 168.274 92.2319 149.546 73.5048ZM119.596 103.455C113.162 97.0215 113.158 86.5918 119.596 80.1538C126.03 73.7202 136.459 73.725 142.893 80.1581C149.327 86.5918 149.331 97.0215 142.897 103.455C136.459 109.893 126.029 109.889 119.596 103.455Z" fill="url(#paint9_linear)"/>
</g>
</g>
<path id="Vector_11" d="M141.522 104.683L180.713 143.874C186.096 135.062 189.2 124.706 189.2 113.624C189.2 105.908 187.692 98.5447 184.961 91.8086C179.892 96.638 167.115 105.388 141.522 104.683Z" fill="url(#paint10_linear)"/>
<path id="Vector_12" d="M153.024 0C124.345 0 100.911 22.922 100.083 51.4137C107.791 49.2813 115.845 48.7645 123.722 49.8685C125.273 35.0709 137.821 23.4979 153.024 23.4979C169.279 23.4979 182.496 36.7214 182.496 52.9701C182.496 64.3841 175.97 74.3061 166.459 79.1994C162.429 81.2732 157.859 82.4423 153.024 82.4423C149.723 82.4423 146.55 81.8959 143.584 80.8913H143.578C140.1 79.7104 136.917 77.8955 134.156 75.5923C129.033 74.6698 123.558 76.1913 119.599 80.1509C116.914 82.8356 115.352 86.2133 114.911 89.7028C121.995 97.0696 131.201 102.386 141.522 104.683C145.229 105.505 149.077 105.94 153.024 105.94C160.273 105.94 167.187 104.477 173.485 101.828C192.565 93.809 205.994 74.9283 205.994 52.9696C205.994 23.7623 182.232 0 153.024 0V0Z" fill="url(#paint11_linear)"/>
<path id="Vector_13" d="M193.781 52.9703C193.781 30.469 175.54 12.2275 153.039 12.2275C131.743 12.2275 114.274 28.5687 112.462 49.3943C116.218 49.1901 119.99 49.3449 123.722 49.8682C125.273 35.0705 137.821 23.4975 153.024 23.4975C169.279 23.4975 182.496 36.721 182.496 52.9697C182.496 64.3837 175.97 74.3057 166.459 79.1991C162.429 81.2729 157.859 82.4419 153.024 82.4419C149.723 82.4419 146.55 81.8955 143.584 80.8909H143.578C140.1 79.71 136.917 77.8951 134.156 75.5919C129.764 74.8011 125.116 75.8122 121.384 78.6102C128.854 87.8209 140.257 93.7119 153.039 93.7119C175.54 93.713 193.781 75.4721 193.781 52.9703Z" fill="url(#paint12_linear)"/>
</g>
<defs>
<linearGradient id="paint0_linear" x1="113.455" y1="215.913" x2="145.641" y2="215.913" gradientUnits="userSpaceOnUse">
<stop stop-color="#FFDA2D"/>
<stop offset="1" stop-color="#FDBF00"/>
</linearGradient>
<linearGradient id="paint1_linear" x1="144.48" y1="208.615" x2="124.11" y2="208.615" gradientUnits="userSpaceOnUse">
<stop stop-color="#FFDA2D"/>
<stop offset="1" stop-color="#FDBF00"/>
</linearGradient>
<linearGradient id="paint2_linear" x1="142.94" y1="192.388" x2="130.408" y2="160.862" gradientUnits="userSpaceOnUse">
<stop stop-color="#FF9100" stop-opacity="0"/>
<stop offset="1" stop-color="#FF9100"/>
</linearGradient>
<linearGradient id="paint3_linear" x1="104.961" y1="139.753" x2="222.491" y2="22.2226" gradientUnits="userSpaceOnUse">
<stop stop-color="#FFDA2D"/>
<stop offset="1" stop-color="#FDBF00"/>
</linearGradient>
<linearGradient id="paint4_linear" x1="154.133" y1="90.5804" x2="42.9141" y2="201.799" gradientUnits="userSpaceOnUse">
<stop stop-color="#FFDA2D"/>
<stop offset="1" stop-color="#FDBF00"/>
</linearGradient>
<linearGradient id="paint5_linear" x1="174.878" y1="157.413" x2="135.468" y2="118.003" gradientUnits="userSpaceOnUse">
<stop stop-color="#FF9100" stop-opacity="0"/>
<stop offset="1" stop-color="#FF9100"/>
</linearGradient>
<linearGradient id="paint6_linear" x1="30.7665" y1="167.321" x2="53.5215" y2="190.076" gradientUnits="userSpaceOnUse">
<stop stop-color="#FFDA2D"/>
<stop offset="1" stop-color="#FDBF00"/>
</linearGradient>
<linearGradient id="paint7_linear" x1="57.8605" y1="184.096" x2="43.4589" y2="169.694" gradientUnits="userSpaceOnUse">
<stop stop-color="#FFDA2D"/>
<stop offset="1" stop-color="#FDBF00"/>
</linearGradient>
<linearGradient id="paint8_linear" x1="78.6066" y1="107.47" x2="244.794" y2="107.47" gradientUnits="userSpaceOnUse">
<stop stop-color="#FFDA2D"/>
<stop offset="1" stop-color="#FDBF00"/>
</linearGradient>
<linearGradient id="paint9_linear" x1="148.135" y1="107.47" x2="-9.12728" y2="107.47" gradientUnits="userSpaceOnUse">
<stop stop-color="#FFDA2D"/>
<stop offset="1" stop-color="#FDBF00"/>
</linearGradient>
<linearGradient id="paint10_linear" x1="172.233" y1="125.63" x2="164.008" y2="100.37" gradientUnits="userSpaceOnUse">
<stop stop-color="#FF9100" stop-opacity="0"/>
<stop offset="1" stop-color="#FF9100"/>
</linearGradient>
<linearGradient id="paint11_linear" x1="100.083" y1="52.9701" x2="205.994" y2="52.9701" gradientUnits="userSpaceOnUse">
<stop stop-color="#0B799D"/>
<stop offset="1" stop-color="#07485E"/>
</linearGradient>
<linearGradient id="paint12_linear" x1="205.575" y1="105.502" x2="114.272" y2="14.1987" gradientUnits="userSpaceOnUse">
<stop stop-color="#0B799D"/>
<stop offset="1" stop-color="#07485E"/>
</linearGradient>
</defs>
</svg>
