<svg width="140" height="102" viewBox="0 0 140 102" fill="none" xmlns="http://www.w3.org/2000/svg">
<path d="M50.9688 0.421875H10.1875C7.66468 0.424753 5.24602 1.42821 3.46212 3.21212C1.67821 4.99602 0.674753 7.41468 0.671875 9.9375V53.4375C0.674753 55.9603 1.67821 58.379 3.46212 60.1629C5.24602 61.9468 7.66468 62.9502 10.1875 62.9531H52.3281V69.75C52.3211 75.8768 49.8841 81.7507 45.5518 86.083C41.2195 90.4154 35.3456 92.8524 29.2188 92.8594C28.1372 92.8594 27.0999 93.289 26.3351 94.0538C25.5703 94.8186 25.1406 95.8559 25.1406 96.9375C25.1406 98.0191 25.5703 99.0564 26.3351 99.8212C27.0999 100.586 28.1372 101.016 29.2188 101.016C37.508 101.006 45.4551 97.7092 51.3166 91.8478C57.178 85.9864 60.475 78.0393 60.4844 69.75V9.9375C60.4815 7.41468 59.478 4.99602 57.6941 3.21212C55.9102 1.42821 53.4916 0.424753 50.9688 0.421875ZM52.3281 54.7969H10.1875C9.82708 54.7965 9.48153 54.6532 9.22668 54.3983C8.97182 54.1435 8.82848 53.7979 8.82812 53.4375V9.9375C8.82848 9.57708 8.97182 9.23153 9.22668 8.97668C9.48153 8.72182 9.82708 8.57848 10.1875 8.57812H50.9688C51.3292 8.57848 51.6747 8.72182 51.9296 8.97668C52.1844 9.23153 52.3278 9.57708 52.3281 9.9375V54.7969ZM129.812 0.421875H89.0312C86.5084 0.424753 84.0898 1.42821 82.3059 3.21212C80.522 4.99602 79.5185 7.41468 79.5156 9.9375V53.4375C79.5185 55.9603 80.522 58.379 82.3059 60.1629C84.0898 61.9468 86.5084 62.9502 89.0312 62.9531H131.172V69.75C131.165 75.8768 128.728 81.7507 124.396 86.083C120.063 90.4154 114.189 92.8524 108.062 92.8594C106.981 92.8594 105.944 93.289 105.179 94.0538C104.414 94.8186 103.984 95.8559 103.984 96.9375C103.984 98.0191 104.414 99.0564 105.179 99.8212C105.944 100.586 106.981 101.016 108.062 101.016C116.352 101.006 124.299 97.7092 130.16 91.8478C136.022 85.9864 139.319 78.0393 139.328 69.75V9.9375C139.325 7.41468 138.322 4.99602 136.538 3.21212C134.754 1.42821 132.335 0.424753 129.812 0.421875ZM131.172 54.7969H89.0312C88.6708 54.7965 88.3253 54.6532 88.0704 54.3983C87.8156 54.1435 87.6722 53.7979 87.6719 53.4375V9.9375C87.6722 9.57708 87.8156 9.23153 88.0704 8.97668C88.3253 8.72182 88.6708 8.57848 89.0312 8.57812H129.812C130.173 8.57848 130.518 8.72182 130.773 8.97668C131.028 9.23153 131.172 9.57708 131.172 9.9375V54.7969Z" fill="#BABFDE"/>
</svg>
