<svg width="87" height="86" viewBox="0 0 87 86" fill="none" xmlns="http://www.w3.org/2000/svg">
<g clip-path="url(#clip0)">
<path d="M55.5098 55.6118C64.6285 55.6118 72.0206 48.3046 72.0206 39.2908C72.0206 30.277 64.6285 22.9698 55.5098 22.9698C46.3912 22.9698 38.9991 30.277 38.9991 39.2908C38.9991 48.3046 46.3912 55.6118 55.5098 55.6118Z" fill="#FFD33F"/>
<path d="M55.511 18.5185C54.6821 18.5185 54.01 17.8541 54.01 17.0347V14.0673C54.01 13.2479 54.6821 12.5836 55.511 12.5836C56.3399 12.5836 57.012 13.2479 57.012 14.0673V17.0347C57.012 17.8541 56.3399 18.5185 55.511 18.5185Z" fill="#FFD33F"/>
<path d="M71.4303 25.038C70.6014 25.0378 69.9296 24.3734 69.9297 23.5539C69.9297 23.1605 70.0879 22.7833 70.3692 22.5052L72.4915 20.4058C73.078 19.826 74.0289 19.826 74.6154 20.4058C75.2019 20.9855 75.2019 21.9255 74.6154 22.5052L72.4915 24.6017C72.2103 24.8805 71.8287 25.0374 71.4303 25.038Z" fill="#FFD33F"/>
<path d="M81.0276 40.7744H78.0256C77.1967 40.7744 76.5247 40.1101 76.5247 39.2907C76.5247 38.4713 77.1967 37.8069 78.0256 37.8069H81.0276C81.8565 37.8069 82.5286 38.4713 82.5286 39.2907C82.5286 40.1101 81.8565 40.7744 81.0276 40.7744Z" fill="#FFD33F"/>
<path d="M39.5901 25.038C39.192 25.038 38.8104 24.8815 38.5289 24.6033L36.4065 22.5053C35.82 21.9259 35.8197 20.9863 36.4058 20.4066C36.9919 19.8268 37.9424 19.8264 38.5289 20.4058L40.6513 22.5053C41.2374 23.0849 41.2373 24.0242 40.6509 24.6036C40.3695 24.8816 39.9881 25.038 39.5901 25.038Z" fill="#FFD33F"/>
<path d="M49.4756 45.2256C49.4765 38.6701 44.1011 33.3551 37.4694 33.3541C35.8538 33.354 34.2549 33.6759 32.7682 34.3009C29.1966 27.839 21.002 25.4626 14.4649 28.9931C9.59498 31.6232 6.85175 36.9336 7.55177 42.3754C2.64339 43.1699 -0.684088 47.7474 0.119685 52.5993C0.829272 56.8819 4.55901 60.0348 8.94918 60.0628H49.4756C53.6203 60.0628 56.9804 56.7413 56.9804 52.6442C56.9804 48.5471 53.6203 45.2256 49.4756 45.2256Z" fill="#75E6FF"/>
<path d="M74.9922 49.6767C73.8046 49.6765 72.6235 49.8505 71.4874 50.193C69.2984 41.452 60.3556 36.1201 51.513 38.2839C44.6393 39.9659 39.6187 45.7971 39.0378 52.7732C38.5185 52.6911 37.9937 52.6479 37.4678 52.6442C31.665 52.6442 26.9609 57.2941 26.9609 63.0302C26.9609 68.7663 31.665 73.4163 37.4678 73.4163H74.9922C81.6239 73.4163 87 68.102 87 61.5465C87 54.991 81.6239 49.6767 74.9922 49.6767Z" fill="#ADF0FF"/>
</g>
<defs>
<clipPath id="clip0">
<rect width="87" height="86" fill="white"/>
</clipPath>
</defs>
</svg>
